# AST/ASF file generated using VICON BodyLanguage
# -----------------------------------------------
:version 1.10
:name VICON
:units
  mass 1.0
  length 0.45
  angle deg
:documentation
   .ast/.asf automatically generated from VICON data using
   VICON BodyBuilder and BodyLanguage model FoxedUp or BRILLIANT.MOD
:root
   order TX TY TZ RX RY RZ
   axis XYZ
   position 0 0 0  
   orientation 0 0 0 
:bonedata
  begin
     id 1 
     name lhipjoint
     direction 0.566809 -0.746272 0.349008 
     length 2.40479 
     axis 0 0 0  XYZ
  end
  begin
     id 2 
     name lfemur
     direction 0.34202 -0.939693 0  
     length 7.1578  
     axis 0 0 20  XYZ
    dof rx ry rz
    limits (-160.0 20.0)
           (-70.0 70.0)
           (-60.0 70.0)
  end
  begin
     id 3 
     name ltibia
     direction 0.34202 -0.939693 0   
     length 7.49137   
     axis 0 0 20   XYZ
    dof rx
    limits (-10.0 170.0)
  end
  begin
     id 4 
     name lfoot
     direction 0.0665746 -0.182912 0.980873   
     length 2.36784   
     axis -90 7.62852e-016 20   XYZ
    dof rx rz
    limits (-45.0 90.0)
           (-70.0 20.0)
  end
  begin
     id 5 
     name ltoes
     direction 1.53601e-011 -4.22058e-011 1   
     length 1.18966   
     axis -90 7.62852e-016 20   XYZ
    dof rx
    limits (-90.0 20.0)
  end
  begin
     id 6 
     name rhipjoint
     direction -0.550236 -0.756381 0.353735   
     length 2.37265  
     axis 0 0 0  XYZ 
  end
  begin
     id 7 
     name rfemur
     direction -0.34202 -0.939693 0   
     length 7.43386   
     axis 0 0 -20   XYZ
    dof rx ry rz
    limits (-160.0 20.0)
           (-70.0 70.0)
           (-70.0 60.0)
  end
  begin
     id 8 
     name rtibia
     direction -0.34202 -0.939693 0   
     length 7.50908   
     axis 0 0 -20   XYZ
    dof rx
    limits (-10.0 170.0)
 end
 begin
     id 9 
     name rfoot
     direction -0.0683029 -0.187661 0.979856   
     length 2.41173  
     axis -90 -7.62852e-016 -20   XYZ
    dof rx rz
    limits (-45.0 90.0)
           (-20.0 70.0)
  end
  begin
     id 10 
     name rtoes
     direction -1.53528e-011 -4.21968e-011 1   
     length 1.21082   
     axis -90 -7.62852e-016 -20   XYZ
    dof rx
    limits (-90.0 20.0)
  end
  begin
     id 11 
     name lowerback
     direction 0.013823 0.995423 -0.0945635   
     length 2.04495   
     axis 0 0 0   XYZ
    dof rx ry rz
    limits (-20.0 45.0)
           (-30.0 30.0)
           (-30.0 30.0)
  end
  begin
     id 12 
     name upperback
     direction 0.0276657 0.9994 -0.020853   
     length 2.05008   
     axis 0 0 0   XYZ
    dof rx ry rz
    limits (-20.0 45.0)
           (-30.0 30.0)
           (-30.0 30.0)
  end
  begin
     id 13 
     name thorax
     direction 0.019782 0.999531 0.0233827   
     length 2.06488   
     axis 0 0 0   XYZ
    dof rx ry rz
    limits (-20.0 45.0)
           (-30.0 30.0)
           (-30.0 30.0)
  end
  begin
     id 14 
     name lowerneck
     direction -0.0308541 0.994709 0.0979874   
     length 1.75553   
     axis 0 0 0   XYZ
    dof rx ry rz
    limits (-20.0 45.0)
           (-30.0 30.0)
           (-30.0 30.0)
  end
  begin
     id 15 
     name upperneck
     direction 0.0588398 0.995804 -0.0700903   
     length 1.76878   
     axis 0 0 0   XYZ
    dof rx ry rz
    limits (-20.0 45.0)
           (-30.0 30.0)
           (-30.0 30.0)
  end
  begin
     id 16
     name head
     direction 0.0209966 0.999159 -0.0352225  
     length 1.77193  
     axis 0 0 0   XYZ
    dof rx ry rz
    limits (-20.0 45.0)
           (-30.0 30.0)
           (-30.0 30.0)
  end
  begin
     id 17 
     name lclavicle
     direction 0.938182 0.335073 -0.0868338  
     length 3.58396  
     axis 0 0 0   XYZ
    dof ry rz
    limits (-20.0 10.0)
           (0.0 20.0)
  end
  begin
     id 18 
     name lhumerus
     direction 1 -4.48971e-011 -1.26313e-017   
     length 4.983   
     axis 180 -30 -90   XYZ
    dof rx ry rz
    limits (-60.0 90.0)
           (-90.0 90.0)
           (-90.0 90.0)
  end
  begin
     id 19
     name lradius
     direction 1 -4.48948e-011 -5.89033e-027   
     length 3.48356   
     axis 180 -30 -90   XYZ
    dof rx
    limits (-10.0 170.0)
  end
  begin
     id 20
     name lwrist
     direction 1 -4.48977e-011 -1.48983e-026   
     length 1.74178   
     axis 9.0955e-015 90 90   XYZ
    dof ry
    limits (-180.0 0.0)
 end
  begin
     id 21 
     name lhand
     direction 1 -4.49046e-011 -2.98066e-026   
     length 0.715259   
     axis 1.90115e-014 90 90   XYZ
    dof rx rz
    limits (-90.0 90.0)
           (-45.0 45.0)
  end
  begin
     id 22 
     name lfingers
     direction 1 -4.48907e-011 -5.95731e-026   
     length 0.576661   
     axis 3.80223e-014 90 90   XYZ
    dof rx
    limits (0.0 90.0)
  end
  begin
     id 23
     name lthumb
     direction 0.707107 -6.34963e-011 0.707107   
     length 0.827973   
     axis -90 45 -3.84942e-014   XYZ
    dof rx rz
    limits (-45.0 45.0)
           (-45.0 45.0)
  end
  begin
     id 24 
     name rclavicle
     direction -0.909637 0.398485 -0.11735   
     length 3.44819  
     axis 0 0 0   XYZ 
    dof ry rz
    limits (-10.0 20.0)
           (-20.0 0.0)
  end
  begin
     id 25 
     name rhumerus
     direction -1 -4.48978e-011 -1.09333e-027  
     length 5.2419   
     axis 180 30 90   XYZ
    dof rx ry rz
    limits (-90.0 60.0)
           (-90.0 90.0)
           (-90.0 90.0)
  end
  begin
     id 26 
     name rradius
     direction -1 -4.48953e-011 -7.61841e-027   
     length 3.44417   
     axis 180 30 90   XYZ
    dof rx
    limits (-10.0 170.0)
  end
  begin
     id 27 
     name rwrist
     direction -1 -4.48977e-011 -1.48983e-026   
     length 1.72209   
     axis 9.0955e-015 -90 -90   XYZ
    dof ry
    limits (-180.0 0.0)
  end
  begin
     id 28
     name rhand
     direction -1 -4.49027e-011 -2.98038e-026   
     length 0.622529   
     axis 1.90115e-014 -90 -90   XYZ
    dof rx rz
    limits (-90.0 90.0)
           (-45.0 45.0)
  end
  begin
     id 29
     name rfingers
     direction -1 -4.48838e-011 -5.95531e-026   
     length 0.501899   
     axis 3.80223e-014 -90 -90   XYZ
    dof rx
    limits (0.0 90.0)
  end
  begin
     id 30
     name rthumb
     direction -0.707107 -6.34937e-011 0.707107   
     length 0.720629   
     axis -90 -45 3.84942e-014   XYZ
    dof rx rz
    limits (-45.0 45.0)
           (-45.0 45.0)
  end
:hierarchy
  begin
    root lhipjoint rhipjoint lowerback
    lhipjoint lfemur
    lfemur ltibia
    ltibia lfoot
    lfoot ltoes
    rhipjoint rfemur
    rfemur rtibia
    rtibia rfoot
    rfoot rtoes
    lowerback upperback
    upperback thorax
    thorax lowerneck lclavicle rclavicle
    lowerneck upperneck
    upperneck head
    lclavicle lhumerus
    lhumerus lradius
    lradius lwrist
    lwrist lhand lthumb
    lhand lfingers
    rclavicle rhumerus
    rhumerus rradius
    rradius rwrist
    rwrist rhand rthumb
    rhand rfingers
  end

#!OML:ASF H:\Terrain\Patient Classification 1\PLAYGROUND\JustinFriday\JustinFriday.ASF
:FULLY-SPECIFIED
:DEGREES
164
root -4.01699 17.2315 14.016 134.709 -74.0641 -131.515
lowerback 6.18751 3.27427 5.9531
upperback 4.83778 4.41958 1.32832
thorax 1.90501 2.26922 -2.13301
lowerneck 9.31111 -8.7554 -16.3691
upperneck 16.406 -14.0435 5.41979
head 5.04555 -7.84797 3.89712
rclavicle -7.23576e-014 -1.27222e-014
rhumerus -20.892 -6.72459 -75.4169
rradius 40.051
rwrist -10.484
rhand -19.5719 -21.8551
rfingers 7.12502
rthumb 6.75309 -51.7275
lclavicle -7.23576e-014 -1.27222e-014
lhumerus -35.2655 10.3886 80.2773
lradius 27.1917
lwrist -0.241554
lhand -16.3039 -5.29167
lfingers 7.12502
lthumb 9.90702 24.4552
rfemur 4.40856 1.78756 38.0768
rtibia 23.2629
rfoot -22.2254 -7.32987
rtoes 19.8296
lfemur -36.3737 2.76202 -3.02391
ltibia 27.3842
lfoot -19.2098 -2.43329
ltoes -3.90542
165
root -4.14946 17.2075 14.0095 134.31 -74.0511 -130.894
lowerback 6.20208 3.13244 6.05716
upperback 4.77054 4.23937 1.44327
thorax 1.81154 2.17637 -2.0706
lowerneck 9.15892 -9.05267 -14.7243
upperneck 16.2252 -14.1777 4.38785
head 4.83465 -7.84777 3.33215
rclavicle -4.92986e-014 1.27222e-014
rhumerus -21.3559 -7.75818 -75.0401
rradius 42.1765
rwrist -9.14309
rhand -17.5227 -22.2042
rfingers 7.12502
rthumb 8.73095 -52.0037
lclavicle -4.92986e-014 1.27222e-014
lhumerus -35.5046 10.6665 80.3248
lradius 27.216
lwrist -0.218582
lhand -16.0217 -4.89899
lfingers 7.12502
lthumb 10.1792 24.8347
rfemur 4.6462 1.41382 38.0743
rtibia 23.2844
rfoot -22.1824 -7.33849
rtoes 18.1683
lfemur -36.5522 3.07801 -3.25872
ltibia 27.5096
lfoot -18.4287 -3.55949
ltoes -3.32895
166
root -4.27635 17.1887 13.9969 134.401 -73.9349 -130.549
lowerback 6.02746 3.11496 6.24607
upperback 4.63896 4.22364 1.45074
thorax 1.78476 2.17265 -2.1608
lowerneck 8.93606 -9.09153 -14.9495
upperneck 16.5179 -14.2508 4.55939
head 4.99736 -7.89528 3.39263
rclavicle -3.69739e-014 -1.59028e-015
rhumerus -21.118 -8.46125 -74.7986
rradius 43.1395
rwrist -8.18123
rhand -17.1522 -22.4219
rfingers 7.12502
rthumb 9.08851 -52.206
lclavicle -3.69739e-014 -1.59028e-015
lhumerus -35.6126 10.7715 80.2901
lradius 27.1514
lwrist -0.394623
lhand -15.9637 -4.9807
lfingers 7.12502
lthumb 10.2352 24.7503
rfemur 4.64863 1.71758 38.2707
rtibia 23.312
rfoot -21.9108 -7.98797
rtoes 16.1987
lfemur -36.9962 3.98267 -3.67146
ltibia 27.8312
lfoot -16.9987 -4.41019
ltoes -5.47459
167
root -4.41064 17.1693 13.9808 132.834 -73.6728 -129.326
lowerback 6.57123 3.0635 6.78117
upperback 4.7225 4.20454 1.51599
thorax 1.60894 2.16618 -2.41765
lowerneck 8.84691 -9.20381 -14.724
upperneck 16.7144 -14.4289 4.83706
head 5.09076 -7.9646 3.4266
rclavicle -6.71892e-014 7.95139e-016
rhumerus -21.3131 -9.46171 -74.5894
rradius 44.6098
rwrist -7.49885
rhand -17.5727 -22.6191
rfingers 7.12502
rthumb 8.68269 -52.4206
lclavicle -6.71892e-014 7.95139e-016
lhumerus -35.656 10.9731 80.1325
lradius 26.9746
lwrist -0.906448
lhand -15.9004 -4.98562
lfingers 7.12502
lthumb 10.2962 24.7423
rfemur 5.52959 2.37922 39.002
rtibia 23.3186
rfoot -21.803 -9.17998
rtoes 14.8664
lfemur -36.6103 3.93803 -3.45528
ltibia 28.3956
lfoot -15.8075 -4.69245
ltoes -7.69087
168
root -4.55192 17.17 13.9828 133.026 -74.0948 -129.587
lowerback 6.70166 2.94338 6.60971
upperback 4.71997 4.04908 1.46519
thorax 1.50938 2.08293 -2.37825
lowerneck 9.17007 -8.38136 -17.4038
upperneck 16.9918 -13.9017 7.32258
head 5.42593 -7.79766 4.64267
rclavicle 8.0309e-014 1.82882e-014
rhumerus -20.9816 -8.10668 -74.1689
rradius 45.5567
rwrist -9.00029
rhand -16.8479 -22.337
rfingers 7.12502
rthumb 9.38208 -52.1082
lclavicle 8.0309e-014 1.82882e-014
lhumerus -35.8866 10.9257 80.2211
lradius 26.9649
lwrist -0.724663
lhand -15.6848 -4.80272
lfingers 7.12502
lthumb 10.5042 24.9148
rfemur 6.06703 2.21223 38.5809
rtibia 23.2589
rfoot -21.7015 -9.50491
rtoes 13.9644
lfemur -36.5348 3.26445 -4.02216
ltibia 29.118
lfoot -14.7071 -4.97318
ltoes -5.7245
169
root -4.70117 17.1619 13.9541 133.992 -73.8569 -130.454
lowerback 6.499 3.07164 6.24736
upperback 4.71671 4.18568 1.62875
thorax 1.58788 2.14177 -2.00347
lowerneck 9.1191 -7.84291 -19.4723
upperneck 17.5519 -13.6001 9.07718
head 5.82852 -7.73613 5.5322
rclavicle -6.36111e-015 -1.03368e-014
rhumerus -21.0268 -9.0868 -73.6873
rradius 46.927
rwrist -8.43155
rhand -15.66 -21.5031
rfingers 7.12502
rthumb 10.5282 -51.2195
lclavicle -6.36111e-015 -1.03368e-014
lhumerus -36.0488 10.7746 80.4478
lradius 26.9096
lwrist -0.259173
lhand -15.7257 -4.64411
lfingers 7.12502
lthumb 10.4647 25.0754
rfemur 6.55264 2.59546 38.6924
rtibia 23.2123
rfoot -21.4657 -9.77513
rtoes 13.6607
lfemur -36.5261 3.44001 -4.11339
ltibia 29.8693
lfoot -13.9991 -5.55942
ltoes -2.13907
170
root -4.85148 17.1406 13.9351 134.121 -73.4346 -130.747
lowerback 6.57696 3.16847 6.27402
upperback 4.82309 4.30446 1.82263
thorax 1.6528 2.19744 -1.82353
lowerneck 8.85869 -7.64563 -20.8232
upperneck 18.0609 -13.5757 10.1639
head 6.19459 -7.78002 6.08269
rclavicle 3.598e-014 -4.05521e-014
rhumerus -20.9296 -9.5738 -73.1852
rradius 48.1465
rwrist -8.25228
rhand -17.3842 -21.5521
rfingers 7.12502
rthumb 8.86463 -51.3459
lclavicle 3.598e-014 -4.05521e-014
lhumerus -35.9912 11.0983 80.5419
lradius 26.5519
lwrist -0.549355
lhand -15.9392 -4.65973
lfingers 7.12502
lthumb 10.2588 25.0701
rfemur 7.16795 3.04314 39.1026
rtibia 23.5138
rfoot -21.1118 -10.4776
rtoes 11.7673
lfemur -36.152 3.33441 -3.8908
ltibia 30.337
lfoot -13.5667 -5.954
ltoes -0.313214
171
root -5.0037 17.1258 13.936 134.235 -73.2387 -131.159
lowerback 6.82801 3.1772 6.47439
upperback 4.95774 4.32584 1.8973
thorax 1.6679 2.20944 -1.86769
lowerneck 8.66719 -7.67508 -21.7048
upperneck 18.3843 -13.7515 10.7563
head 6.46358 -7.90323 6.38928
rclavicle -4.01545e-014 -1.27222e-014
rhumerus -20.7715 -9.10879 -72.6864
rradius 49.3317
rwrist -8.64065
rhand -19.1504 -21.8638
rfingers 7.12502
rthumb 7.16002 -51.7227
lclavicle -4.01545e-014 -1.27222e-014
lhumerus -35.857 11.6783 80.4292
lradius 26.0993
lwrist -1.17769
lhand -15.6255 -4.7032
lfingers 7.12502
lthumb 10.5614 25.0114
rfemur 7.73756 3.34569 39.2372
rtibia 24.0302
rfoot -20.6955 -11.1055
rtoes 9.64697
lfemur -35.5534 2.70955 -3.83301
ltibia 30.6187
lfoot -12.3588 -6.74138
ltoes 4.27532
172
root -5.16415 17.1442 13.9423 137.22 -73.5258 -134.295
lowerback 6.7871 3.33783 5.87349
upperback 5.01411 4.51048 1.66512
thorax 1.73017 2.29545 -1.77829
lowerneck 8.68731 -7.8782 -21.8852
upperneck 18.5556 -14.0774 10.8204
head 6.59256 -8.076 6.40735
rclavicle -1.43125e-014 2.14687e-014
rhumerus -20.7539 -9.56151 -72.3205
rradius 50.452
rwrist -8.23022
rhand -19.1912 -21.7274
rfingers 7.12502
rthumb 7.12059 -51.5876
lclavicle -1.43125e-014 2.14687e-014
lhumerus -35.7507 11.8284 80.4193
lradius 25.7531
lwrist -1.32112
lhand -15.3039 -4.5946
lfingers 7.12502
lthumb 10.8716 25.104
rfemur 8.01199 3.59442 38.2686
rtibia 24.6975
rfoot -20.1381 -11.5535
rtoes 7.64305
lfemur -34.9221 2.20653 -4.77191
ltibia 30.7255
lfoot -10.6205 -7.43014
ltoes 9.77296
173
root -5.32895 17.1695 13.9479 141.089 -73.7541 -138.368
lowerback 6.6932 3.55068 5.02464
upperback 5.09887 4.75021 1.35648
thorax 1.83744 2.40468 -1.62771
lowerneck 8.77266 -8.16459 -21.1218
upperneck 18.5058 -14.3561 10.2589
head 6.51509 -8.18332 6.07969
rclavicle -3.77691e-014 2.78299e-014
rhumerus -20.7997 -10.3129 -72.2476
rradius 51.6137
rwrist -7.68186
rhand -19.778 -22.2768
rfingers 7.12502
rthumb 6.55414 -52.1554
lclavicle -3.77691e-014 2.78299e-014
lhumerus -35.6483 11.3048 80.6186
lradius 25.5312
lwrist -0.86093
lhand -15.3514 -4.40224
lfingers 7.12502
lthumb 10.8258 25.2987
rfemur 8.28722 4.03567 37.1674
rtibia 25.5408
rfoot -19.3976 -12.4034
rtoes 4.85746
lfemur -34.1513 1.79898 -5.85409
ltibia 30.7206
lfoot -9.55827 -7.08122
ltoes 11.0486
